<?xml version="1.0" encoding="utf-8" standalone="no"?>
<!DOCTYPE svg PUBLIC "-//W3C//DTD SVG 1.1//EN"
  "http://www.w3.org/Graphics/SVG/1.1/DTD/svg11.dtd">
<svg xmlns:xlink="http://www.w3.org/1999/xlink" width="505.205991pt" height="220.32996pt" viewBox="0 0 505.205991 220.32996" xmlns="http://www.w3.org/2000/svg" version="1.1">
 <metadata>
  <rdf:RDF xmlns:dc="http://purl.org/dc/elements/1.1/" xmlns:cc="http://creativecommons.org/ns#" xmlns:rdf="http://www.w3.org/1999/02/22-rdf-syntax-ns#">
   <cc:Work>
    <dc:type rdf:resource="http://purl.org/dc/dcmitype/StillImage"/>
    <dc:date>2026-04-15T15:36:35.049560</dc:date>
    <dc:format>image/svg+xml</dc:format>
    <dc:creator>
     <cc:Agent>
      <dc:title>Matplotlib v3.10.6, https://matplotlib.org/</dc:title>
     </cc:Agent>
    </dc:creator>
   </cc:Work>
  </rdf:RDF>
 </metadata>
 <defs>
  <style type="text/css">*{stroke-linejoin: round; stroke-linecap: butt}</style>
 </defs>
 <g id="figure_1">
  <g id="patch_1">
   <path d="M 0 220.32996 
L 505.205991 220.32996 
L 505.205991 0 
L 0 0 
z
" style="fill: #ffffff"/>
  </g>
  <g id="axes_1">
   <g id="patch_2">
    <path d="M 33.285469 196.240023 
L 154.481946 196.240023 
L 154.481946 17.869631 
L 33.285469 17.869631 
z
" style="fill: #ffffff"/>
   </g>
   <g id="matplotlib.axis_1">
    <g id="xtick_1">
     <g id="line2d_1">
      <defs>
       <path id="m70cf0623b6" d="M 0 0 
L 0 3 
" style="stroke: #000000; stroke-width: 0.5"/>
      </defs>
      <g>
       <use xlink:href="#m70cf0623b6" x="58.342218" y="196.240023" style="stroke: #000000; stroke-width: 0.5"/>
      </g>
     </g>
     <g id="text_1">
      <!-- Authorized -->
      <g transform="translate(41.610578 207.750491) scale(0.07 -0.07)">
       <defs>
        <path id="ArialMT-41" d="M -9 0 
L 1750 4581 
L 2403 4581 
L 4278 0 
L 3588 0 
L 3053 1388 
L 1138 1388 
L 634 0 
L -9 0 
z
M 1313 1881 
L 2866 1881 
L 2388 3150 
Q 2169 3728 2063 4100 
Q 1975 3659 1816 3225 
L 1313 1881 
z
" transform="scale(0.015625)"/>
        <path id="ArialMT-75" d="M 2597 0 
L 2597 488 
Q 2209 -75 1544 -75 
Q 1250 -75 995 37 
Q 741 150 617 320 
Q 494 491 444 738 
Q 409 903 409 1263 
L 409 3319 
L 972 3319 
L 972 1478 
Q 972 1038 1006 884 
Q 1059 663 1231 536 
Q 1403 409 1656 409 
Q 1909 409 2131 539 
Q 2353 669 2445 892 
Q 2538 1116 2538 1541 
L 2538 3319 
L 3100 3319 
L 3100 0 
L 2597 0 
z
" transform="scale(0.015625)"/>
        <path id="ArialMT-74" d="M 1650 503 
L 1731 6 
Q 1494 -44 1306 -44 
Q 1000 -44 831 53 
Q 663 150 594 308 
Q 525 466 525 972 
L 525 2881 
L 113 2881 
L 113 3319 
L 525 3319 
L 525 4141 
L 1084 4478 
L 1084 3319 
L 1650 3319 
L 1650 2881 
L 1084 2881 
L 1084 941 
Q 1084 700 1114 631 
Q 1144 563 1211 522 
Q 1278 481 1403 481 
Q 1497 481 1650 503 
z
" transform="scale(0.015625)"/>
        <path id="ArialMT-68" d="M 422 0 
L 422 4581 
L 984 4581 
L 984 2938 
Q 1378 3394 1978 3394 
Q 2347 3394 2619 3248 
Q 2891 3103 3008 2847 
Q 3125 2591 3125 2103 
L 3125 0 
L 2563 0 
L 2563 2103 
Q 2563 2525 2380 2717 
Q 2197 2909 1863 2909 
Q 1613 2909 1392 2779 
Q 1172 2650 1078 2428 
Q 984 2206 984 1816 
L 984 0 
L 422 0 
z
" transform="scale(0.015625)"/>
        <path id="ArialMT-6f" d="M 213 1659 
Q 213 2581 725 3025 
Q 1153 3394 1769 3394 
Q 2453 3394 2887 2945 
Q 3322 2497 3322 1706 
Q 3322 1066 3130 698 
Q 2938 331 2570 128 
Q 2203 -75 1769 -75 
Q 1072 -75 642 372 
Q 213 819 213 1659 
z
M 791 1659 
Q 791 1022 1069 705 
Q 1347 388 1769 388 
Q 2188 388 2466 706 
Q 2744 1025 2744 1678 
Q 2744 2294 2464 2611 
Q 2184 2928 1769 2928 
Q 1347 2928 1069 2612 
Q 791 2297 791 1659 
z
" transform="scale(0.015625)"/>
        <path id="ArialMT-72" d="M 416 0 
L 416 3319 
L 922 3319 
L 922 2816 
Q 1116 3169 1280 3281 
Q 1444 3394 1641 3394 
Q 1925 3394 2219 3213 
L 2025 2691 
Q 1819 2813 1613 2813 
Q 1428 2813 1281 2702 
Q 1134 2591 1072 2394 
Q 978 2094 978 1738 
L 978 0 
L 416 0 
z
" transform="scale(0.015625)"/>
        <path id="ArialMT-69" d="M 425 3934 
L 425 4581 
L 988 4581 
L 988 3934 
L 425 3934 
z
M 425 0 
L 425 3319 
L 988 3319 
L 988 0 
L 425 0 
z
" transform="scale(0.015625)"/>
        <path id="ArialMT-7a" d="M 125 0 
L 125 456 
L 2238 2881 
Q 1878 2863 1603 2863 
L 250 2863 
L 250 3319 
L 2963 3319 
L 2963 2947 
L 1166 841 
L 819 456 
Q 1197 484 1528 484 
L 3063 484 
L 3063 0 
L 125 0 
z
" transform="scale(0.015625)"/>
        <path id="ArialMT-65" d="M 2694 1069 
L 3275 997 
Q 3138 488 2766 206 
Q 2394 -75 1816 -75 
Q 1088 -75 661 373 
Q 234 822 234 1631 
Q 234 2469 665 2931 
Q 1097 3394 1784 3394 
Q 2450 3394 2872 2941 
Q 3294 2488 3294 1666 
Q 3294 1616 3291 1516 
L 816 1516 
Q 847 969 1125 678 
Q 1403 388 1819 388 
Q 2128 388 2347 550 
Q 2566 713 2694 1069 
z
M 847 1978 
L 2700 1978 
Q 2663 2397 2488 2606 
Q 2219 2931 1791 2931 
Q 1403 2931 1139 2672 
Q 875 2413 847 1978 
z
" transform="scale(0.015625)"/>
        <path id="ArialMT-64" d="M 2575 0 
L 2575 419 
Q 2259 -75 1647 -75 
Q 1250 -75 917 144 
Q 584 363 401 755 
Q 219 1147 219 1656 
Q 219 2153 384 2558 
Q 550 2963 881 3178 
Q 1213 3394 1622 3394 
Q 1922 3394 2156 3267 
Q 2391 3141 2538 2938 
L 2538 4581 
L 3097 4581 
L 3097 0 
L 2575 0 
z
M 797 1656 
Q 797 1019 1065 703 
Q 1334 388 1700 388 
Q 2069 388 2326 689 
Q 2584 991 2584 1609 
Q 2584 2291 2321 2609 
Q 2059 2928 1675 2928 
Q 1300 2928 1048 2622 
Q 797 2316 797 1656 
z
" transform="scale(0.015625)"/>
       </defs>
       <use xlink:href="#ArialMT-41"/>
       <use xlink:href="#ArialMT-75" transform="translate(66.699219 0)"/>
       <use xlink:href="#ArialMT-74" transform="translate(122.314453 0)"/>
       <use xlink:href="#ArialMT-68" transform="translate(150.097656 0)"/>
       <use xlink:href="#ArialMT-6f" transform="translate(205.712891 0)"/>
       <use xlink:href="#ArialMT-72" transform="translate(261.328125 0)"/>
       <use xlink:href="#ArialMT-69" transform="translate(294.628906 0)"/>
       <use xlink:href="#ArialMT-7a" transform="translate(316.845703 0)"/>
       <use xlink:href="#ArialMT-65" transform="translate(366.845703 0)"/>
       <use xlink:href="#ArialMT-64" transform="translate(422.460938 0)"/>
      </g>
      <!-- (same fiber) -->
      <g transform="translate(39.673 215.256679) scale(0.07 -0.07)">
       <defs>
        <path id="ArialMT-28" d="M 1497 -1347 
Q 1031 -759 709 28 
Q 388 816 388 1659 
Q 388 2403 628 3084 
Q 909 3875 1497 4659 
L 1900 4659 
Q 1522 4009 1400 3731 
Q 1209 3300 1100 2831 
Q 966 2247 966 1656 
Q 966 153 1900 -1347 
L 1497 -1347 
z
" transform="scale(0.015625)"/>
        <path id="ArialMT-73" d="M 197 991 
L 753 1078 
Q 800 744 1014 566 
Q 1228 388 1613 388 
Q 2000 388 2187 545 
Q 2375 703 2375 916 
Q 2375 1106 2209 1216 
Q 2094 1291 1634 1406 
Q 1016 1563 777 1677 
Q 538 1791 414 1992 
Q 291 2194 291 2438 
Q 291 2659 392 2848 
Q 494 3038 669 3163 
Q 800 3259 1026 3326 
Q 1253 3394 1513 3394 
Q 1903 3394 2198 3281 
Q 2494 3169 2634 2976 
Q 2775 2784 2828 2463 
L 2278 2388 
Q 2241 2644 2061 2787 
Q 1881 2931 1553 2931 
Q 1166 2931 1000 2803 
Q 834 2675 834 2503 
Q 834 2394 903 2306 
Q 972 2216 1119 2156 
Q 1203 2125 1616 2013 
Q 2213 1853 2448 1751 
Q 2684 1650 2818 1456 
Q 2953 1263 2953 975 
Q 2953 694 2789 445 
Q 2625 197 2315 61 
Q 2006 -75 1616 -75 
Q 969 -75 630 194 
Q 291 463 197 991 
z
" transform="scale(0.015625)"/>
        <path id="ArialMT-61" d="M 2588 409 
Q 2275 144 1986 34 
Q 1697 -75 1366 -75 
Q 819 -75 525 192 
Q 231 459 231 875 
Q 231 1119 342 1320 
Q 453 1522 633 1644 
Q 813 1766 1038 1828 
Q 1203 1872 1538 1913 
Q 2219 1994 2541 2106 
Q 2544 2222 2544 2253 
Q 2544 2597 2384 2738 
Q 2169 2928 1744 2928 
Q 1347 2928 1158 2789 
Q 969 2650 878 2297 
L 328 2372 
Q 403 2725 575 2942 
Q 747 3159 1072 3276 
Q 1397 3394 1825 3394 
Q 2250 3394 2515 3294 
Q 2781 3194 2906 3042 
Q 3031 2891 3081 2659 
Q 3109 2516 3109 2141 
L 3109 1391 
Q 3109 606 3145 398 
Q 3181 191 3288 0 
L 2700 0 
Q 2613 175 2588 409 
z
M 2541 1666 
Q 2234 1541 1622 1453 
Q 1275 1403 1131 1340 
Q 988 1278 909 1158 
Q 831 1038 831 891 
Q 831 666 1001 516 
Q 1172 366 1500 366 
Q 1825 366 2078 508 
Q 2331 650 2450 897 
Q 2541 1088 2541 1459 
L 2541 1666 
z
" transform="scale(0.015625)"/>
        <path id="ArialMT-6d" d="M 422 0 
L 422 3319 
L 925 3319 
L 925 2853 
Q 1081 3097 1340 3245 
Q 1600 3394 1931 3394 
Q 2300 3394 2536 3241 
Q 2772 3088 2869 2813 
Q 3263 3394 3894 3394 
Q 4388 3394 4653 3120 
Q 4919 2847 4919 2278 
L 4919 0 
L 4359 0 
L 4359 2091 
Q 4359 2428 4304 2576 
Q 4250 2725 4106 2815 
Q 3963 2906 3769 2906 
Q 3419 2906 3187 2673 
Q 2956 2441 2956 1928 
L 2956 0 
L 2394 0 
L 2394 2156 
Q 2394 2531 2256 2718 
Q 2119 2906 1806 2906 
Q 1569 2906 1367 2781 
Q 1166 2656 1075 2415 
Q 984 2175 984 1722 
L 984 0 
L 422 0 
z
" transform="scale(0.015625)"/>
        <path id="ArialMT-20" transform="scale(0.015625)"/>
        <path id="ArialMT-66" d="M 556 0 
L 556 2881 
L 59 2881 
L 59 3319 
L 556 3319 
L 556 3672 
Q 556 4006 616 4169 
Q 697 4388 901 4523 
Q 1106 4659 1475 4659 
Q 1713 4659 2000 4603 
L 1916 4113 
Q 1741 4144 1584 4144 
Q 1328 4144 1222 4034 
Q 1116 3925 1116 3625 
L 1116 3319 
L 1763 3319 
L 1763 2881 
L 1116 2881 
L 1116 0 
L 556 0 
z
" transform="scale(0.015625)"/>
        <path id="ArialMT-62" d="M 941 0 
L 419 0 
L 419 4581 
L 981 4581 
L 981 2947 
Q 1338 3394 1891 3394 
Q 2197 3394 2470 3270 
Q 2744 3147 2920 2923 
Q 3097 2700 3197 2384 
Q 3297 2069 3297 1709 
Q 3297 856 2875 390 
Q 2453 -75 1863 -75 
Q 1275 -75 941 416 
L 941 0 
z
M 934 1684 
Q 934 1088 1097 822 
Q 1363 388 1816 388 
Q 2184 388 2453 708 
Q 2722 1028 2722 1663 
Q 2722 2313 2464 2622 
Q 2206 2931 1841 2931 
Q 1472 2931 1203 2611 
Q 934 2291 934 1684 
z
" transform="scale(0.015625)"/>
        <path id="ArialMT-29" d="M 791 -1347 
L 388 -1347 
Q 1322 153 1322 1656 
Q 1322 2244 1188 2822 
Q 1081 3291 891 3722 
Q 769 4003 388 4659 
L 791 4659 
Q 1378 3875 1659 3084 
Q 1900 2403 1900 1659 
Q 1900 816 1576 28 
Q 1253 -759 791 -1347 
z
" transform="scale(0.015625)"/>
       </defs>
       <use xlink:href="#ArialMT-28"/>
       <use xlink:href="#ArialMT-73" transform="translate(33.300781 0)"/>
       <use xlink:href="#ArialMT-61" transform="translate(83.300781 0)"/>
       <use xlink:href="#ArialMT-6d" transform="translate(138.916016 0)"/>
       <use xlink:href="#ArialMT-65" transform="translate(222.216797 0)"/>
       <use xlink:href="#ArialMT-20" transform="translate(277.832031 0)"/>
       <use xlink:href="#ArialMT-66" transform="translate(305.615234 0)"/>
       <use xlink:href="#ArialMT-69" transform="translate(333.398438 0)"/>
       <use xlink:href="#ArialMT-62" transform="translate(355.615234 0)"/>
       <use xlink:href="#ArialMT-65" transform="translate(411.230469 0)"/>
       <use xlink:href="#ArialMT-72" transform="translate(466.845703 0)"/>
       <use xlink:href="#ArialMT-29" transform="translate(500.146484 0)"/>
      </g>
     </g>
    </g>
    <g id="xtick_2">
     <g id="line2d_2">
      <g>
       <use xlink:href="#m70cf0623b6" x="129.425196" y="196.240023" style="stroke: #000000; stroke-width: 0.5"/>
      </g>
     </g>
     <g id="text_2">
      <!-- Unauthorized -->
      <g transform="translate(108.607852 207.750491) scale(0.07 -0.07)">
       <defs>
        <path id="ArialMT-55" d="M 3500 4581 
L 4106 4581 
L 4106 1934 
Q 4106 1244 3950 837 
Q 3794 431 3386 176 
Q 2978 -78 2316 -78 
Q 1672 -78 1262 144 
Q 853 366 678 786 
Q 503 1206 503 1934 
L 503 4581 
L 1109 4581 
L 1109 1938 
Q 1109 1341 1220 1058 
Q 1331 775 1601 622 
Q 1872 469 2263 469 
Q 2931 469 3215 772 
Q 3500 1075 3500 1938 
L 3500 4581 
z
" transform="scale(0.015625)"/>
        <path id="ArialMT-6e" d="M 422 0 
L 422 3319 
L 928 3319 
L 928 2847 
Q 1294 3394 1984 3394 
Q 2284 3394 2536 3286 
Q 2788 3178 2913 3003 
Q 3038 2828 3088 2588 
Q 3119 2431 3119 2041 
L 3119 0 
L 2556 0 
L 2556 2019 
Q 2556 2363 2490 2533 
Q 2425 2703 2258 2804 
Q 2091 2906 1866 2906 
Q 1506 2906 1245 2678 
Q 984 2450 984 1813 
L 984 0 
L 422 0 
z
" transform="scale(0.015625)"/>
       </defs>
       <use xlink:href="#ArialMT-55"/>
       <use xlink:href="#ArialMT-6e" transform="translate(72.216797 0)"/>
       <use xlink:href="#ArialMT-61" transform="translate(127.832031 0)"/>
       <use xlink:href="#ArialMT-75" transform="translate(183.447266 0)"/>
       <use xlink:href="#ArialMT-74" transform="translate(239.0625 0)"/>
       <use xlink:href="#ArialMT-68" transform="translate(266.845703 0)"/>
       <use xlink:href="#ArialMT-6f" transform="translate(322.460938 0)"/>
       <use xlink:href="#ArialMT-72" transform="translate(378.076172 0)"/>
       <use xlink:href="#ArialMT-69" transform="translate(411.376953 0)"/>
       <use xlink:href="#ArialMT-7a" transform="translate(433.59375 0)"/>
       <use xlink:href="#ArialMT-65" transform="translate(483.59375 0)"/>
       <use xlink:href="#ArialMT-64" transform="translate(539.208984 0)"/>
      </g>
      <!-- (cross fiber) -->
      <g transform="translate(110.952306 215.256679) scale(0.07 -0.07)">
       <defs>
        <path id="ArialMT-63" d="M 2588 1216 
L 3141 1144 
Q 3050 572 2676 248 
Q 2303 -75 1759 -75 
Q 1078 -75 664 370 
Q 250 816 250 1647 
Q 250 2184 428 2587 
Q 606 2991 970 3192 
Q 1334 3394 1763 3394 
Q 2303 3394 2647 3120 
Q 2991 2847 3088 2344 
L 2541 2259 
Q 2463 2594 2264 2762 
Q 2066 2931 1784 2931 
Q 1359 2931 1093 2626 
Q 828 2322 828 1663 
Q 828 994 1084 691 
Q 1341 388 1753 388 
Q 2084 388 2306 591 
Q 2528 794 2588 1216 
z
" transform="scale(0.015625)"/>
       </defs>
       <use xlink:href="#ArialMT-28"/>
       <use xlink:href="#ArialMT-63" transform="translate(33.300781 0)"/>
       <use xlink:href="#ArialMT-72" transform="translate(83.300781 0)"/>
       <use xlink:href="#ArialMT-6f" transform="translate(116.601562 0)"/>
       <use xlink:href="#ArialMT-73" transform="translate(172.216797 0)"/>
       <use xlink:href="#ArialMT-73" transform="translate(222.216797 0)"/>
       <use xlink:href="#ArialMT-20" transform="translate(272.216797 0)"/>
       <use xlink:href="#ArialMT-66" transform="translate(300 0)"/>
       <use xlink:href="#ArialMT-69" transform="translate(327.783203 0)"/>
       <use xlink:href="#ArialMT-62" transform="translate(350 0)"/>
       <use xlink:href="#ArialMT-65" transform="translate(405.615234 0)"/>
       <use xlink:href="#ArialMT-72" transform="translate(461.230469 0)"/>
       <use xlink:href="#ArialMT-29" transform="translate(494.53125 0)"/>
      </g>
     </g>
    </g>
   </g>
   <g id="matplotlib.axis_2">
    <g id="ytick_1">
     <g id="line2d_3">
      <defs>
       <path id="m9c3a84ef44" d="M 0 0 
L -3 0 
" style="stroke: #000000; stroke-width: 0.5"/>
      </defs>
      <g>
       <use xlink:href="#m9c3a84ef44" x="33.285469" y="196.240023" style="stroke: #000000; stroke-width: 0.5"/>
      </g>
     </g>
     <g id="text_3">
      <!-- 0 -->
      <g transform="translate(22.892813 198.745257) scale(0.07 -0.07)">
       <defs>
        <path id="ArialMT-30" d="M 266 2259 
Q 266 3072 433 3567 
Q 600 4063 929 4331 
Q 1259 4600 1759 4600 
Q 2128 4600 2406 4451 
Q 2684 4303 2865 4023 
Q 3047 3744 3150 3342 
Q 3253 2941 3253 2259 
Q 3253 1453 3087 958 
Q 2922 463 2592 192 
Q 2263 -78 1759 -78 
Q 1097 -78 719 397 
Q 266 969 266 2259 
z
M 844 2259 
Q 844 1131 1108 757 
Q 1372 384 1759 384 
Q 2147 384 2411 759 
Q 2675 1134 2675 2259 
Q 2675 3391 2411 3762 
Q 2147 4134 1753 4134 
Q 1366 4134 1134 3806 
Q 844 3388 844 2259 
z
" transform="scale(0.015625)"/>
       </defs>
       <use xlink:href="#ArialMT-30"/>
      </g>
     </g>
    </g>
    <g id="ytick_2">
     <g id="line2d_4">
      <g>
       <use xlink:href="#m9c3a84ef44" x="33.285469" y="163.809042" style="stroke: #000000; stroke-width: 0.5"/>
      </g>
     </g>
     <g id="text_4">
      <!-- 20 -->
      <g transform="translate(19.000156 166.314277) scale(0.07 -0.07)">
       <defs>
        <path id="ArialMT-32" d="M 3222 541 
L 3222 0 
L 194 0 
Q 188 203 259 391 
Q 375 700 629 1000 
Q 884 1300 1366 1694 
Q 2113 2306 2375 2664 
Q 2638 3022 2638 3341 
Q 2638 3675 2398 3904 
Q 2159 4134 1775 4134 
Q 1369 4134 1125 3890 
Q 881 3647 878 3216 
L 300 3275 
Q 359 3922 746 4261 
Q 1134 4600 1788 4600 
Q 2447 4600 2831 4234 
Q 3216 3869 3216 3328 
Q 3216 3053 3103 2787 
Q 2991 2522 2730 2228 
Q 2469 1934 1863 1422 
Q 1356 997 1212 845 
Q 1069 694 975 541 
L 3222 541 
z
" transform="scale(0.015625)"/>
       </defs>
       <use xlink:href="#ArialMT-32"/>
       <use xlink:href="#ArialMT-30" transform="translate(55.615234 0)"/>
      </g>
     </g>
    </g>
    <g id="ytick_3">
     <g id="line2d_5">
      <g>
       <use xlink:href="#m9c3a84ef44" x="33.285469" y="131.378062" style="stroke: #000000; stroke-width: 0.5"/>
      </g>
     </g>
     <g id="text_5">
      <!-- 40 -->
      <g transform="translate(19.000156 133.883297) scale(0.07 -0.07)">
       <defs>
        <path id="ArialMT-34" d="M 2069 0 
L 2069 1097 
L 81 1097 
L 81 1613 
L 2172 4581 
L 2631 4581 
L 2631 1613 
L 3250 1613 
L 3250 1097 
L 2631 1097 
L 2631 0 
L 2069 0 
z
M 2069 1613 
L 2069 3678 
L 634 1613 
L 2069 1613 
z
" transform="scale(0.015625)"/>
       </defs>
       <use xlink:href="#ArialMT-34"/>
       <use xlink:href="#ArialMT-30" transform="translate(55.615234 0)"/>
      </g>
     </g>
    </g>
    <g id="ytick_4">
     <g id="line2d_6">
      <g>
       <use xlink:href="#m9c3a84ef44" x="33.285469" y="98.947082" style="stroke: #000000; stroke-width: 0.5"/>
      </g>
     </g>
     <g id="text_6">
      <!-- 60 -->
      <g transform="translate(19.000156 101.452316) scale(0.07 -0.07)">
       <defs>
        <path id="ArialMT-36" d="M 3184 3459 
L 2625 3416 
Q 2550 3747 2413 3897 
Q 2184 4138 1850 4138 
Q 1581 4138 1378 3988 
Q 1113 3794 959 3422 
Q 806 3050 800 2363 
Q 1003 2672 1297 2822 
Q 1591 2972 1913 2972 
Q 2475 2972 2870 2558 
Q 3266 2144 3266 1488 
Q 3266 1056 3080 686 
Q 2894 316 2569 119 
Q 2244 -78 1831 -78 
Q 1128 -78 684 439 
Q 241 956 241 2144 
Q 241 3472 731 4075 
Q 1159 4600 1884 4600 
Q 2425 4600 2770 4297 
Q 3116 3994 3184 3459 
z
M 888 1484 
Q 888 1194 1011 928 
Q 1134 663 1356 523 
Q 1578 384 1822 384 
Q 2178 384 2434 671 
Q 2691 959 2691 1453 
Q 2691 1928 2437 2201 
Q 2184 2475 1800 2475 
Q 1419 2475 1153 2201 
Q 888 1928 888 1484 
z
" transform="scale(0.015625)"/>
       </defs>
       <use xlink:href="#ArialMT-36"/>
       <use xlink:href="#ArialMT-30" transform="translate(55.615234 0)"/>
      </g>
     </g>
    </g>
    <g id="ytick_5">
     <g id="line2d_7">
      <g>
       <use xlink:href="#m9c3a84ef44" x="33.285469" y="66.516102" style="stroke: #000000; stroke-width: 0.5"/>
      </g>
     </g>
     <g id="text_7">
      <!-- 80 -->
      <g transform="translate(19.000156 69.021336) scale(0.07 -0.07)">
       <defs>
        <path id="ArialMT-38" d="M 1131 2484 
Q 781 2613 612 2850 
Q 444 3088 444 3419 
Q 444 3919 803 4259 
Q 1163 4600 1759 4600 
Q 2359 4600 2725 4251 
Q 3091 3903 3091 3403 
Q 3091 3084 2923 2848 
Q 2756 2613 2416 2484 
Q 2838 2347 3058 2040 
Q 3278 1734 3278 1309 
Q 3278 722 2862 322 
Q 2447 -78 1769 -78 
Q 1091 -78 675 323 
Q 259 725 259 1325 
Q 259 1772 486 2073 
Q 713 2375 1131 2484 
z
M 1019 3438 
Q 1019 3113 1228 2906 
Q 1438 2700 1772 2700 
Q 2097 2700 2305 2904 
Q 2513 3109 2513 3406 
Q 2513 3716 2298 3927 
Q 2084 4138 1766 4138 
Q 1444 4138 1231 3931 
Q 1019 3725 1019 3438 
z
M 838 1322 
Q 838 1081 952 856 
Q 1066 631 1291 507 
Q 1516 384 1775 384 
Q 2178 384 2440 643 
Q 2703 903 2703 1303 
Q 2703 1709 2433 1975 
Q 2163 2241 1756 2241 
Q 1359 2241 1098 1978 
Q 838 1716 838 1322 
z
" transform="scale(0.015625)"/>
       </defs>
       <use xlink:href="#ArialMT-38"/>
       <use xlink:href="#ArialMT-30" transform="translate(55.615234 0)"/>
      </g>
     </g>
    </g>
    <g id="ytick_6">
     <g id="line2d_8">
      <g>
       <use xlink:href="#m9c3a84ef44" x="33.285469" y="34.085121" style="stroke: #000000; stroke-width: 0.5"/>
      </g>
     </g>
     <g id="text_8">
      <!-- 100 -->
      <g transform="translate(15.1075 36.590356) scale(0.07 -0.07)">
       <defs>
        <path id="ArialMT-31" d="M 2384 0 
L 1822 0 
L 1822 3584 
Q 1619 3391 1289 3197 
Q 959 3003 697 2906 
L 697 3450 
Q 1169 3672 1522 3987 
Q 1875 4303 2022 4600 
L 2384 4600 
L 2384 0 
z
" transform="scale(0.015625)"/>
       </defs>
       <use xlink:href="#ArialMT-31"/>
       <use xlink:href="#ArialMT-30" transform="translate(55.615234 0)"/>
       <use xlink:href="#ArialMT-30" transform="translate(111.230469 0)"/>
      </g>
     </g>
    </g>
    <g id="text_9">
     <!-- Recognition accuracy (%) -->
     <g transform="translate(9.42375 152.626702) rotate(-90) scale(0.08 -0.08)">
      <defs>
       <path id="ArialMT-52" d="M 503 0 
L 503 4581 
L 2534 4581 
Q 3147 4581 3465 4457 
Q 3784 4334 3975 4021 
Q 4166 3709 4166 3331 
Q 4166 2844 3850 2509 
Q 3534 2175 2875 2084 
Q 3116 1969 3241 1856 
Q 3506 1613 3744 1247 
L 4541 0 
L 3778 0 
L 3172 953 
Q 2906 1366 2734 1584 
Q 2563 1803 2427 1890 
Q 2291 1978 2150 2013 
Q 2047 2034 1813 2034 
L 1109 2034 
L 1109 0 
L 503 0 
z
M 1109 2559 
L 2413 2559 
Q 2828 2559 3062 2645 
Q 3297 2731 3419 2920 
Q 3541 3109 3541 3331 
Q 3541 3656 3305 3865 
Q 3069 4075 2559 4075 
L 1109 4075 
L 1109 2559 
z
" transform="scale(0.015625)"/>
       <path id="ArialMT-67" d="M 319 -275 
L 866 -356 
Q 900 -609 1056 -725 
Q 1266 -881 1628 -881 
Q 2019 -881 2231 -725 
Q 2444 -569 2519 -288 
Q 2563 -116 2559 434 
Q 2191 0 1641 0 
Q 956 0 581 494 
Q 206 988 206 1678 
Q 206 2153 378 2554 
Q 550 2956 876 3175 
Q 1203 3394 1644 3394 
Q 2231 3394 2613 2919 
L 2613 3319 
L 3131 3319 
L 3131 450 
Q 3131 -325 2973 -648 
Q 2816 -972 2473 -1159 
Q 2131 -1347 1631 -1347 
Q 1038 -1347 672 -1080 
Q 306 -813 319 -275 
z
M 784 1719 
Q 784 1066 1043 766 
Q 1303 466 1694 466 
Q 2081 466 2343 764 
Q 2606 1063 2606 1700 
Q 2606 2309 2336 2618 
Q 2066 2928 1684 2928 
Q 1309 2928 1046 2623 
Q 784 2319 784 1719 
z
" transform="scale(0.015625)"/>
       <path id="ArialMT-79" d="M 397 -1278 
L 334 -750 
Q 519 -800 656 -800 
Q 844 -800 956 -737 
Q 1069 -675 1141 -563 
Q 1194 -478 1313 -144 
Q 1328 -97 1363 -6 
L 103 3319 
L 709 3319 
L 1400 1397 
Q 1534 1031 1641 628 
Q 1738 1016 1872 1384 
L 2581 3319 
L 3144 3319 
L 1881 -56 
Q 1678 -603 1566 -809 
Q 1416 -1088 1222 -1217 
Q 1028 -1347 759 -1347 
Q 597 -1347 397 -1278 
z
" transform="scale(0.015625)"/>
       <path id="ArialMT-25" d="M 372 3481 
Q 372 3972 619 4315 
Q 866 4659 1334 4659 
Q 1766 4659 2048 4351 
Q 2331 4044 2331 3447 
Q 2331 2866 2045 2552 
Q 1759 2238 1341 2238 
Q 925 2238 648 2547 
Q 372 2856 372 3481 
z
M 1350 4272 
Q 1141 4272 1002 4090 
Q 863 3909 863 3425 
Q 863 2984 1003 2804 
Q 1144 2625 1350 2625 
Q 1563 2625 1702 2806 
Q 1841 2988 1841 3469 
Q 1841 3913 1700 4092 
Q 1559 4272 1350 4272 
z
M 1353 -169 
L 3859 4659 
L 4316 4659 
L 1819 -169 
L 1353 -169 
z
M 3334 1075 
Q 3334 1569 3581 1911 
Q 3828 2253 4300 2253 
Q 4731 2253 5014 1945 
Q 5297 1638 5297 1041 
Q 5297 459 5011 145 
Q 4725 -169 4303 -169 
Q 3888 -169 3611 142 
Q 3334 453 3334 1075 
z
M 4316 1866 
Q 4103 1866 3964 1684 
Q 3825 1503 3825 1019 
Q 3825 581 3965 400 
Q 4106 219 4313 219 
Q 4528 219 4667 400 
Q 4806 581 4806 1063 
Q 4806 1506 4665 1686 
Q 4525 1866 4316 1866 
z
" transform="scale(0.015625)"/>
      </defs>
      <use xlink:href="#ArialMT-52"/>
      <use xlink:href="#ArialMT-65" transform="translate(72.216797 0)"/>
      <use xlink:href="#ArialMT-63" transform="translate(127.832031 0)"/>
      <use xlink:href="#ArialMT-6f" transform="translate(177.832031 0)"/>
      <use xlink:href="#ArialMT-67" transform="translate(233.447266 0)"/>
      <use xlink:href="#ArialMT-6e" transform="translate(289.0625 0)"/>
      <use xlink:href="#ArialMT-69" transform="translate(344.677734 0)"/>
      <use xlink:href="#ArialMT-74" transform="translate(366.894531 0)"/>
      <use xlink:href="#ArialMT-69" transform="translate(394.677734 0)"/>
      <use xlink:href="#ArialMT-6f" transform="translate(416.894531 0)"/>
      <use xlink:href="#ArialMT-6e" transform="translate(472.509766 0)"/>
      <use xlink:href="#ArialMT-20" transform="translate(528.125 0)"/>
      <use xlink:href="#ArialMT-61" transform="translate(555.908203 0)"/>
      <use xlink:href="#ArialMT-63" transform="translate(611.523438 0)"/>
      <use xlink:href="#ArialMT-63" transform="translate(661.523438 0)"/>
      <use xlink:href="#ArialMT-75" transform="translate(711.523438 0)"/>
      <use xlink:href="#ArialMT-72" transform="translate(767.138672 0)"/>
      <use xlink:href="#ArialMT-61" transform="translate(800.439453 0)"/>
      <use xlink:href="#ArialMT-63" transform="translate(856.054688 0)"/>
      <use xlink:href="#ArialMT-79" transform="translate(906.054688 0)"/>
      <use xlink:href="#ArialMT-20" transform="translate(956.054688 0)"/>
      <use xlink:href="#ArialMT-28" transform="translate(983.837891 0)"/>
      <use xlink:href="#ArialMT-25" transform="translate(1017.138672 0)"/>
      <use xlink:href="#ArialMT-29" transform="translate(1106.054688 0)"/>
     </g>
    </g>
   </g>
   <g id="line2d_9">
    <path d="M 33.285469 190.003296 
L 154.481946 190.003296 
" clip-path="url(#pf411b86515)" style="fill: none; stroke-dasharray: 2.59,1.12; stroke-dashoffset: 0; stroke: #6c757d; stroke-width: 0.7"/>
   </g>
   <g id="patch_3">
    <path d="M 33.285469 196.240023 
L 33.285469 17.869631 
" style="fill: none; stroke: #000000; stroke-width: 0.6; stroke-linejoin: miter; stroke-linecap: square"/>
   </g>
   <g id="patch_4">
    <path d="M 33.285469 196.240023 
L 154.481946 196.240023 
" style="fill: none; stroke: #000000; stroke-width: 0.6; stroke-linejoin: miter; stroke-linecap: square"/>
   </g>
   <g id="patch_5">
    <path d="M 38.7944 196.240023 
L 77.890037 196.240023 
L 77.890037 41.222709 
L 38.7944 41.222709 
z
" clip-path="url(#pf411b86515)" style="fill: #2c5f8a; stroke: #ffffff; stroke-width: 0.5; stroke-linejoin: miter"/>
   </g>
   <g id="patch_6">
    <path d="M 109.877377 196.240023 
L 148.973015 196.240023 
L 148.973015 189.795015 
L 109.877377 189.795015 
z
" clip-path="url(#pf411b86515)" style="fill: #c14953; stroke: #ffffff; stroke-width: 0.5; stroke-linejoin: miter"/>
   </g>
   <g id="text_10">
    <!-- Chance -->
    <g style="fill: #6c757d" transform="translate(161.412536 181.32645) scale(0.055 -0.055)">
     <defs>
      <path id="ArialMT-43" d="M 3763 1606 
L 4369 1453 
Q 4178 706 3683 314 
Q 3188 -78 2472 -78 
Q 1731 -78 1267 223 
Q 803 525 561 1097 
Q 319 1669 319 2325 
Q 319 3041 592 3573 
Q 866 4106 1370 4382 
Q 1875 4659 2481 4659 
Q 3169 4659 3637 4309 
Q 4106 3959 4291 3325 
L 3694 3184 
Q 3534 3684 3231 3912 
Q 2928 4141 2469 4141 
Q 1941 4141 1586 3887 
Q 1231 3634 1087 3207 
Q 944 2781 944 2328 
Q 944 1744 1114 1308 
Q 1284 872 1643 656 
Q 2003 441 2422 441 
Q 2931 441 3284 734 
Q 3638 1028 3763 1606 
z
" transform="scale(0.015625)"/>
     </defs>
     <use xlink:href="#ArialMT-43"/>
     <use xlink:href="#ArialMT-68" transform="translate(72.216797 0)"/>
     <use xlink:href="#ArialMT-61" transform="translate(127.832031 0)"/>
     <use xlink:href="#ArialMT-6e" transform="translate(183.447266 0)"/>
     <use xlink:href="#ArialMT-63" transform="translate(239.0625 0)"/>
     <use xlink:href="#ArialMT-65" transform="translate(289.0625 0)"/>
    </g>
    <!-- (3.8%) -->
    <g style="fill: #6c757d" transform="translate(161.412536 187.224169) scale(0.055 -0.055)">
     <defs>
      <path id="ArialMT-33" d="M 269 1209 
L 831 1284 
Q 928 806 1161 595 
Q 1394 384 1728 384 
Q 2125 384 2398 659 
Q 2672 934 2672 1341 
Q 2672 1728 2419 1979 
Q 2166 2231 1775 2231 
Q 1616 2231 1378 2169 
L 1441 2663 
Q 1497 2656 1531 2656 
Q 1891 2656 2178 2843 
Q 2466 3031 2466 3422 
Q 2466 3731 2256 3934 
Q 2047 4138 1716 4138 
Q 1388 4138 1169 3931 
Q 950 3725 888 3313 
L 325 3413 
Q 428 3978 793 4289 
Q 1159 4600 1703 4600 
Q 2078 4600 2393 4439 
Q 2709 4278 2876 4000 
Q 3044 3722 3044 3409 
Q 3044 3113 2884 2869 
Q 2725 2625 2413 2481 
Q 2819 2388 3044 2092 
Q 3269 1797 3269 1353 
Q 3269 753 2831 336 
Q 2394 -81 1725 -81 
Q 1122 -81 723 278 
Q 325 638 269 1209 
z
" transform="scale(0.015625)"/>
      <path id="ArialMT-2e" d="M 581 0 
L 581 641 
L 1222 641 
L 1222 0 
L 581 0 
z
" transform="scale(0.015625)"/>
     </defs>
     <use xlink:href="#ArialMT-28"/>
     <use xlink:href="#ArialMT-33" transform="translate(33.300781 0)"/>
     <use xlink:href="#ArialMT-2e" transform="translate(88.916016 0)"/>
     <use xlink:href="#ArialMT-38" transform="translate(116.699219 0)"/>
     <use xlink:href="#ArialMT-25" transform="translate(172.314453 0)"/>
     <use xlink:href="#ArialMT-29" transform="translate(261.230469 0)"/>
    </g>
   </g>
   <g id="text_11">
    <!-- 95.6% -->
    <g style="fill: #2c5f8a" transform="translate(47.000968 37.211635) scale(0.08 -0.08)">
     <defs>
      <path id="Arial-BoldMT-39" d="M 291 1059 
L 1141 1153 
Q 1172 894 1303 769 
Q 1434 644 1650 644 
Q 1922 644 2112 894 
Q 2303 1144 2356 1931 
Q 2025 1547 1528 1547 
Q 988 1547 595 1964 
Q 203 2381 203 3050 
Q 203 3747 617 4173 
Q 1031 4600 1672 4600 
Q 2369 4600 2816 4061 
Q 3263 3522 3263 2288 
Q 3263 1031 2797 475 
Q 2331 -81 1584 -81 
Q 1047 -81 715 205 
Q 384 491 291 1059 
z
M 2278 2978 
Q 2278 3403 2083 3637 
Q 1888 3872 1631 3872 
Q 1388 3872 1227 3680 
Q 1066 3488 1066 3050 
Q 1066 2606 1241 2398 
Q 1416 2191 1678 2191 
Q 1931 2191 2104 2391 
Q 2278 2591 2278 2978 
z
" transform="scale(0.015625)"/>
      <path id="Arial-BoldMT-35" d="M 284 1178 
L 1159 1269 
Q 1197 972 1381 798 
Q 1566 625 1806 625 
Q 2081 625 2272 848 
Q 2463 1072 2463 1522 
Q 2463 1944 2273 2155 
Q 2084 2366 1781 2366 
Q 1403 2366 1103 2031 
L 391 2134 
L 841 4519 
L 3163 4519 
L 3163 3697 
L 1506 3697 
L 1369 2919 
Q 1663 3066 1969 3066 
Q 2553 3066 2959 2641 
Q 3366 2216 3366 1538 
Q 3366 972 3038 528 
Q 2591 -78 1797 -78 
Q 1163 -78 763 262 
Q 363 603 284 1178 
z
" transform="scale(0.015625)"/>
      <path id="Arial-BoldMT-2e" d="M 459 0 
L 459 878 
L 1338 878 
L 1338 0 
L 459 0 
z
" transform="scale(0.015625)"/>
      <path id="Arial-BoldMT-36" d="M 3247 3459 
L 2397 3366 
Q 2366 3628 2234 3753 
Q 2103 3878 1894 3878 
Q 1616 3878 1423 3628 
Q 1231 3378 1181 2588 
Q 1509 2975 1997 2975 
Q 2547 2975 2939 2556 
Q 3331 2138 3331 1475 
Q 3331 772 2918 347 
Q 2506 -78 1859 -78 
Q 1166 -78 719 461 
Q 272 1000 272 2228 
Q 272 3488 737 4044 
Q 1203 4600 1947 4600 
Q 2469 4600 2811 4308 
Q 3153 4016 3247 3459 
z
M 1256 1544 
Q 1256 1116 1453 883 
Q 1650 650 1903 650 
Q 2147 650 2309 840 
Q 2472 1031 2472 1466 
Q 2472 1913 2297 2120 
Q 2122 2328 1859 2328 
Q 1606 2328 1431 2129 
Q 1256 1931 1256 1544 
z
" transform="scale(0.015625)"/>
      <path id="Arial-BoldMT-25" d="M 278 3450 
Q 278 4066 548 4362 
Q 819 4659 1281 4659 
Q 1759 4659 2029 4364 
Q 2300 4069 2300 3450 
Q 2300 2834 2029 2537 
Q 1759 2241 1297 2241 
Q 819 2241 548 2536 
Q 278 2831 278 3450 
z
M 963 3456 
Q 963 3009 1066 2856 
Q 1144 2744 1281 2744 
Q 1422 2744 1500 2856 
Q 1600 3009 1600 3456 
Q 1600 3903 1500 4053 
Q 1422 4169 1281 4169 
Q 1144 4169 1066 4056 
Q 963 3903 963 3456 
z
M 1950 -175 
L 1300 -175 
L 3741 4659 
L 4372 4659 
L 1950 -175 
z
M 3369 1028 
Q 3369 1644 3639 1941 
Q 3909 2238 4378 2238 
Q 4850 2238 5120 1941 
Q 5391 1644 5391 1028 
Q 5391 409 5120 112 
Q 4850 -184 4388 -184 
Q 3909 -184 3639 112 
Q 3369 409 3369 1028 
z
M 4053 1031 
Q 4053 584 4156 434 
Q 4234 319 4372 319 
Q 4513 319 4588 431 
Q 4691 584 4691 1031 
Q 4691 1478 4591 1631 
Q 4513 1744 4372 1744 
Q 4231 1744 4156 1631 
Q 4053 1478 4053 1031 
z
" transform="scale(0.015625)"/>
     </defs>
     <use xlink:href="#Arial-BoldMT-39"/>
     <use xlink:href="#Arial-BoldMT-35" transform="translate(55.615234 0)"/>
     <use xlink:href="#Arial-BoldMT-2e" transform="translate(111.230469 0)"/>
     <use xlink:href="#Arial-BoldMT-36" transform="translate(139.013672 0)"/>
     <use xlink:href="#Arial-BoldMT-25" transform="translate(194.628906 0)"/>
    </g>
   </g>
   <g id="text_12">
    <!-- 4.0% -->
    <g style="fill: #c14953" transform="translate(120.308321 185.783941) scale(0.08 -0.08)">
     <defs>
      <path id="Arial-BoldMT-34" d="M 1994 0 
L 1994 922 
L 119 922 
L 119 1691 
L 2106 4600 
L 2844 4600 
L 2844 1694 
L 3413 1694 
L 3413 922 
L 2844 922 
L 2844 0 
L 1994 0 
z
M 1994 1694 
L 1994 3259 
L 941 1694 
L 1994 1694 
z
" transform="scale(0.015625)"/>
      <path id="Arial-BoldMT-30" d="M 1756 4600 
Q 2422 4600 2797 4125 
Q 3244 3563 3244 2259 
Q 3244 959 2794 391 
Q 2422 -78 1756 -78 
Q 1088 -78 678 436 
Q 269 950 269 2269 
Q 269 3563 719 4131 
Q 1091 4600 1756 4600 
z
M 1756 3872 
Q 1597 3872 1472 3770 
Q 1347 3669 1278 3406 
Q 1188 3066 1188 2259 
Q 1188 1453 1269 1151 
Q 1350 850 1473 750 
Q 1597 650 1756 650 
Q 1916 650 2041 751 
Q 2166 853 2234 1116 
Q 2325 1453 2325 2259 
Q 2325 3066 2244 3367 
Q 2163 3669 2039 3770 
Q 1916 3872 1756 3872 
z
" transform="scale(0.015625)"/>
     </defs>
     <use xlink:href="#Arial-BoldMT-34"/>
     <use xlink:href="#Arial-BoldMT-2e" transform="translate(55.615234 0)"/>
     <use xlink:href="#Arial-BoldMT-30" transform="translate(83.398438 0)"/>
     <use xlink:href="#Arial-BoldMT-25" transform="translate(139.013672 0)"/>
    </g>
   </g>
   <g id="patch_7">
    <path d="M 93.883707 185.27881 
Q 93.883707 115.508219 93.883707 45.737628 
" style="fill: none; stroke: #6c757d; stroke-width: 0.8; stroke-linecap: round"/>
    <path d="M 95.483707 182.07881 
L 93.883707 185.27881 
L 92.283707 182.07881 
" style="fill: none; stroke: #6c757d; stroke-width: 0.8; stroke-linecap: round"/>
    <path d="M 92.283707 48.937628 
L 93.883707 45.737628 
L 95.483707 48.937628 
" style="fill: none; stroke: #6c757d; stroke-width: 0.8; stroke-linecap: round"/>
   </g>
   <g id="text_13">
    <g id="patch_8">
     <path d="M 82.207379 123.866752 
L 105.560035 123.866752 
Q 106.960035 123.866752 106.960035 122.466752 
L 106.960035 108.550971 
Q 106.960035 107.150971 105.560035 107.150971 
L 82.207379 107.150971 
Q 80.807379 107.150971 80.807379 108.550971 
L 80.807379 122.466752 
Q 80.807379 123.866752 82.207379 123.866752 
z
" style="fill: #ffffff"/>
    </g>
    <!-- Gap -->
    <g style="fill: #6c757d" transform="translate(87.268707 113.646752) scale(0.07 -0.07)">
     <defs>
      <path id="ArialMT-47" d="M 2638 1797 
L 2638 2334 
L 4578 2338 
L 4578 638 
Q 4131 281 3656 101 
Q 3181 -78 2681 -78 
Q 2006 -78 1454 211 
Q 903 500 622 1047 
Q 341 1594 341 2269 
Q 341 2938 620 3517 
Q 900 4097 1425 4378 
Q 1950 4659 2634 4659 
Q 3131 4659 3532 4498 
Q 3934 4338 4162 4050 
Q 4391 3763 4509 3300 
L 3963 3150 
Q 3859 3500 3706 3700 
Q 3553 3900 3268 4020 
Q 2984 4141 2638 4141 
Q 2222 4141 1919 4014 
Q 1616 3888 1430 3681 
Q 1244 3475 1141 3228 
Q 966 2803 966 2306 
Q 966 1694 1177 1281 
Q 1388 869 1791 669 
Q 2194 469 2647 469 
Q 3041 469 3416 620 
Q 3791 772 3984 944 
L 3984 1797 
L 2638 1797 
z
" transform="scale(0.015625)"/>
      <path id="ArialMT-70" d="M 422 -1272 
L 422 3319 
L 934 3319 
L 934 2888 
Q 1116 3141 1344 3267 
Q 1572 3394 1897 3394 
Q 2322 3394 2647 3175 
Q 2972 2956 3137 2557 
Q 3303 2159 3303 1684 
Q 3303 1175 3120 767 
Q 2938 359 2589 142 
Q 2241 -75 1856 -75 
Q 1575 -75 1351 44 
Q 1128 163 984 344 
L 984 -1272 
L 422 -1272 
z
M 931 1641 
Q 931 1000 1190 694 
Q 1450 388 1819 388 
Q 2194 388 2461 705 
Q 2728 1022 2728 1688 
Q 2728 2322 2467 2637 
Q 2206 2953 1844 2953 
Q 1484 2953 1207 2617 
Q 931 2281 931 1641 
z
" transform="scale(0.015625)"/>
     </defs>
     <use xlink:href="#ArialMT-47"/>
     <use xlink:href="#ArialMT-61" transform="translate(77.783203 0)"/>
     <use xlink:href="#ArialMT-70" transform="translate(133.398438 0)"/>
    </g>
    <!-- 91.6 pp -->
    <g style="fill: #6c757d" transform="translate(82.207379 121.075502) scale(0.07 -0.07)">
     <defs>
      <path id="ArialMT-39" d="M 350 1059 
L 891 1109 
Q 959 728 1153 556 
Q 1347 384 1650 384 
Q 1909 384 2104 503 
Q 2300 622 2425 820 
Q 2550 1019 2634 1356 
Q 2719 1694 2719 2044 
Q 2719 2081 2716 2156 
Q 2547 1888 2255 1720 
Q 1963 1553 1622 1553 
Q 1053 1553 659 1965 
Q 266 2378 266 3053 
Q 266 3750 677 4175 
Q 1088 4600 1706 4600 
Q 2153 4600 2523 4359 
Q 2894 4119 3086 3673 
Q 3278 3228 3278 2384 
Q 3278 1506 3087 986 
Q 2897 466 2520 194 
Q 2144 -78 1638 -78 
Q 1100 -78 759 220 
Q 419 519 350 1059 
z
M 2653 3081 
Q 2653 3566 2395 3850 
Q 2138 4134 1775 4134 
Q 1400 4134 1122 3828 
Q 844 3522 844 3034 
Q 844 2597 1108 2323 
Q 1372 2050 1759 2050 
Q 2150 2050 2401 2323 
Q 2653 2597 2653 3081 
z
" transform="scale(0.015625)"/>
     </defs>
     <use xlink:href="#ArialMT-39"/>
     <use xlink:href="#ArialMT-31" transform="translate(55.615234 0)"/>
     <use xlink:href="#ArialMT-2e" transform="translate(111.230469 0)"/>
     <use xlink:href="#ArialMT-36" transform="translate(139.013672 0)"/>
     <use xlink:href="#ArialMT-20" transform="translate(194.628906 0)"/>
     <use xlink:href="#ArialMT-70" transform="translate(222.412109 0)"/>
     <use xlink:href="#ArialMT-70" transform="translate(278.027344 0)"/>
    </g>
   </g>
   <g id="text_14">
    <!-- (a) -->
    <g transform="translate(6.521579 10.879687) scale(0.1 -0.1)">
     <defs>
      <path id="Arial-BoldMT-28" d="M 1916 -1347 
L 1313 -1347 
Q 834 -625 584 153 
Q 334 931 334 1659 
Q 334 2563 644 3369 
Q 913 4069 1325 4659 
L 1925 4659 
Q 1497 3713 1336 3048 
Q 1175 2384 1175 1641 
Q 1175 1128 1270 590 
Q 1366 53 1531 -431 
Q 1641 -750 1916 -1347 
z
" transform="scale(0.015625)"/>
      <path id="Arial-BoldMT-61" d="M 1116 2306 
L 319 2450 
Q 453 2931 781 3162 
Q 1109 3394 1756 3394 
Q 2344 3394 2631 3255 
Q 2919 3116 3036 2902 
Q 3153 2688 3153 2116 
L 3144 1091 
Q 3144 653 3186 445 
Q 3228 238 3344 0 
L 2475 0 
Q 2441 88 2391 259 
Q 2369 338 2359 363 
Q 2134 144 1878 34 
Q 1622 -75 1331 -75 
Q 819 -75 523 203 
Q 228 481 228 906 
Q 228 1188 362 1408 
Q 497 1628 739 1745 
Q 981 1863 1438 1950 
Q 2053 2066 2291 2166 
L 2291 2253 
Q 2291 2506 2166 2614 
Q 2041 2722 1694 2722 
Q 1459 2722 1328 2630 
Q 1197 2538 1116 2306 
z
M 2291 1594 
Q 2122 1538 1756 1459 
Q 1391 1381 1278 1306 
Q 1106 1184 1106 997 
Q 1106 813 1243 678 
Q 1381 544 1594 544 
Q 1831 544 2047 700 
Q 2206 819 2256 991 
Q 2291 1103 2291 1419 
L 2291 1594 
z
" transform="scale(0.015625)"/>
      <path id="Arial-BoldMT-29" d="M 216 -1347 
Q 475 -791 581 -494 
Q 688 -197 778 190 
Q 869 578 912 926 
Q 956 1275 956 1641 
Q 956 2384 797 3048 
Q 638 3713 209 4659 
L 806 4659 
Q 1278 3988 1539 3234 
Q 1800 2481 1800 1706 
Q 1800 1053 1594 306 
Q 1359 -531 822 -1347 
L 216 -1347 
z
" transform="scale(0.015625)"/>
     </defs>
     <use xlink:href="#Arial-BoldMT-28"/>
     <use xlink:href="#Arial-BoldMT-61" transform="translate(33.300781 0)"/>
     <use xlink:href="#Arial-BoldMT-29" transform="translate(88.916016 0)"/>
    </g>
   </g>
  </g>
  <g id="axes_2">
   <g id="patch_9">
    <path d="M 222.402 196.240023 
L 416.316364 196.240023 
L 416.316364 17.869631 
L 222.402 17.869631 
z
" style="fill: #ffffff"/>
   </g>
   <g id="line2d_10">
    <path d="M 222.402 185.238661 
L 416.316364 185.238661 
" clip-path="url(#pa6dac15359)" style="fill: none; stroke-dasharray: 2.59,1.12; stroke-dashoffset: 0; stroke: #6c757d; stroke-width: 0.7"/>
   </g>
   <g id="matplotlib.axis_3">
    <g id="xtick_3">
     <g id="line2d_11">
      <g>
       <use xlink:href="#m70cf0623b6" x="231.21629" y="196.240023" style="stroke: #000000; stroke-width: 0.5"/>
      </g>
     </g>
     <g id="text_15">
      <!-- Authorized -->
      <g transform="translate(214.484649 207.750491) scale(0.07 -0.07)">
       <use xlink:href="#ArialMT-41"/>
       <use xlink:href="#ArialMT-75" transform="translate(66.699219 0)"/>
       <use xlink:href="#ArialMT-74" transform="translate(122.314453 0)"/>
       <use xlink:href="#ArialMT-68" transform="translate(150.097656 0)"/>
       <use xlink:href="#ArialMT-6f" transform="translate(205.712891 0)"/>
       <use xlink:href="#ArialMT-72" transform="translate(261.328125 0)"/>
       <use xlink:href="#ArialMT-69" transform="translate(294.628906 0)"/>
       <use xlink:href="#ArialMT-7a" transform="translate(316.845703 0)"/>
       <use xlink:href="#ArialMT-65" transform="translate(366.845703 0)"/>
       <use xlink:href="#ArialMT-64" transform="translate(422.460938 0)"/>
      </g>
      <!-- (5 diagonal) -->
      <g transform="translate(212.733555 215.256679) scale(0.07 -0.07)">
       <defs>
        <path id="ArialMT-35" d="M 266 1200 
L 856 1250 
Q 922 819 1161 601 
Q 1400 384 1738 384 
Q 2144 384 2425 690 
Q 2706 997 2706 1503 
Q 2706 1984 2436 2262 
Q 2166 2541 1728 2541 
Q 1456 2541 1237 2417 
Q 1019 2294 894 2097 
L 366 2166 
L 809 4519 
L 3088 4519 
L 3088 3981 
L 1259 3981 
L 1013 2750 
Q 1425 3038 1878 3038 
Q 2478 3038 2890 2622 
Q 3303 2206 3303 1553 
Q 3303 931 2941 478 
Q 2500 -78 1738 -78 
Q 1113 -78 717 272 
Q 322 622 266 1200 
z
" transform="scale(0.015625)"/>
        <path id="ArialMT-6c" d="M 409 0 
L 409 4581 
L 972 4581 
L 972 0 
L 409 0 
z
" transform="scale(0.015625)"/>
       </defs>
       <use xlink:href="#ArialMT-28"/>
       <use xlink:href="#ArialMT-35" transform="translate(33.300781 0)"/>
       <use xlink:href="#ArialMT-20" transform="translate(88.916016 0)"/>
       <use xlink:href="#ArialMT-64" transform="translate(116.699219 0)"/>
       <use xlink:href="#ArialMT-69" transform="translate(172.314453 0)"/>
       <use xlink:href="#ArialMT-61" transform="translate(194.53125 0)"/>
       <use xlink:href="#ArialMT-67" transform="translate(250.146484 0)"/>
       <use xlink:href="#ArialMT-6f" transform="translate(305.761719 0)"/>
       <use xlink:href="#ArialMT-6e" transform="translate(361.376953 0)"/>
       <use xlink:href="#ArialMT-61" transform="translate(416.992188 0)"/>
       <use xlink:href="#ArialMT-6c" transform="translate(472.607422 0)"/>
       <use xlink:href="#ArialMT-29" transform="translate(494.824219 0)"/>
      </g>
     </g>
    </g>
    <g id="xtick_4">
     <g id="line2d_12">
      <g>
       <use xlink:href="#m70cf0623b6" x="381.99518" y="196.240023" style="stroke: #000000; stroke-width: 0.5"/>
      </g>
     </g>
     <g id="text_16">
      <!-- Unauthorized -->
      <g transform="translate(361.177836 207.750491) scale(0.07 -0.07)">
       <use xlink:href="#ArialMT-55"/>
       <use xlink:href="#ArialMT-6e" transform="translate(72.216797 0)"/>
       <use xlink:href="#ArialMT-61" transform="translate(127.832031 0)"/>
       <use xlink:href="#ArialMT-75" transform="translate(183.447266 0)"/>
       <use xlink:href="#ArialMT-74" transform="translate(239.0625 0)"/>
       <use xlink:href="#ArialMT-68" transform="translate(266.845703 0)"/>
       <use xlink:href="#ArialMT-6f" transform="translate(322.460938 0)"/>
       <use xlink:href="#ArialMT-72" transform="translate(378.076172 0)"/>
       <use xlink:href="#ArialMT-69" transform="translate(411.376953 0)"/>
       <use xlink:href="#ArialMT-7a" transform="translate(433.59375 0)"/>
       <use xlink:href="#ArialMT-65" transform="translate(483.59375 0)"/>
       <use xlink:href="#ArialMT-64" transform="translate(539.208984 0)"/>
      </g>
      <!-- (20 off-diagonal) -->
      <g transform="translate(356.570961 215.256679) scale(0.07 -0.07)">
       <defs>
        <path id="ArialMT-2d" d="M 203 1375 
L 203 1941 
L 1931 1941 
L 1931 1375 
L 203 1375 
z
" transform="scale(0.015625)"/>
       </defs>
       <use xlink:href="#ArialMT-28"/>
       <use xlink:href="#ArialMT-32" transform="translate(33.300781 0)"/>
       <use xlink:href="#ArialMT-30" transform="translate(88.916016 0)"/>
       <use xlink:href="#ArialMT-20" transform="translate(144.53125 0)"/>
       <use xlink:href="#ArialMT-6f" transform="translate(172.314453 0)"/>
       <use xlink:href="#ArialMT-66" transform="translate(227.929688 0)"/>
       <use xlink:href="#ArialMT-66" transform="translate(253.962891 0)"/>
       <use xlink:href="#ArialMT-2d" transform="translate(281.746094 0)"/>
       <use xlink:href="#ArialMT-64" transform="translate(315.046875 0)"/>
       <use xlink:href="#ArialMT-69" transform="translate(370.662109 0)"/>
       <use xlink:href="#ArialMT-61" transform="translate(392.878906 0)"/>
       <use xlink:href="#ArialMT-67" transform="translate(448.494141 0)"/>
       <use xlink:href="#ArialMT-6f" transform="translate(504.109375 0)"/>
       <use xlink:href="#ArialMT-6e" transform="translate(559.724609 0)"/>
       <use xlink:href="#ArialMT-61" transform="translate(615.339844 0)"/>
       <use xlink:href="#ArialMT-6c" transform="translate(670.955078 0)"/>
       <use xlink:href="#ArialMT-29" transform="translate(693.171875 0)"/>
      </g>
     </g>
    </g>
   </g>
   <g id="matplotlib.axis_4">
    <g id="ytick_7">
     <g id="line2d_13">
      <g>
       <use xlink:href="#m9c3a84ef44" x="222.402" y="191.419201" style="stroke: #000000; stroke-width: 0.5"/>
      </g>
     </g>
     <g id="text_17">
      <!-- 0 -->
      <g transform="translate(212.009344 193.924436) scale(0.07 -0.07)">
       <use xlink:href="#ArialMT-30"/>
      </g>
     </g>
    </g>
    <g id="ytick_8">
     <g id="line2d_14">
      <g>
       <use xlink:href="#m9c3a84ef44" x="222.402" y="159.280392" style="stroke: #000000; stroke-width: 0.5"/>
      </g>
     </g>
     <g id="text_18">
      <!-- 20 -->
      <g transform="translate(208.116688 161.785626) scale(0.07 -0.07)">
       <use xlink:href="#ArialMT-32"/>
       <use xlink:href="#ArialMT-30" transform="translate(55.615234 0)"/>
      </g>
     </g>
    </g>
    <g id="ytick_9">
     <g id="line2d_15">
      <g>
       <use xlink:href="#m9c3a84ef44" x="222.402" y="127.141583" style="stroke: #000000; stroke-width: 0.5"/>
      </g>
     </g>
     <g id="text_19">
      <!-- 40 -->
      <g transform="translate(208.116688 129.646817) scale(0.07 -0.07)">
       <use xlink:href="#ArialMT-34"/>
       <use xlink:href="#ArialMT-30" transform="translate(55.615234 0)"/>
      </g>
     </g>
    </g>
    <g id="ytick_10">
     <g id="line2d_16">
      <g>
       <use xlink:href="#m9c3a84ef44" x="222.402" y="95.002774" style="stroke: #000000; stroke-width: 0.5"/>
      </g>
     </g>
     <g id="text_20">
      <!-- 60 -->
      <g transform="translate(208.116688 97.508008) scale(0.07 -0.07)">
       <use xlink:href="#ArialMT-36"/>
       <use xlink:href="#ArialMT-30" transform="translate(55.615234 0)"/>
      </g>
     </g>
    </g>
    <g id="ytick_11">
     <g id="line2d_17">
      <g>
       <use xlink:href="#m9c3a84ef44" x="222.402" y="62.863964" style="stroke: #000000; stroke-width: 0.5"/>
      </g>
     </g>
     <g id="text_21">
      <!-- 80 -->
      <g transform="translate(208.116688 65.369199) scale(0.07 -0.07)">
       <use xlink:href="#ArialMT-38"/>
       <use xlink:href="#ArialMT-30" transform="translate(55.615234 0)"/>
      </g>
     </g>
    </g>
    <g id="ytick_12">
     <g id="line2d_18">
      <g>
       <use xlink:href="#m9c3a84ef44" x="222.402" y="30.725155" style="stroke: #000000; stroke-width: 0.5"/>
      </g>
     </g>
     <g id="text_22">
      <!-- 100 -->
      <g transform="translate(204.224032 33.230389) scale(0.07 -0.07)">
       <use xlink:href="#ArialMT-31"/>
       <use xlink:href="#ArialMT-30" transform="translate(55.615234 0)"/>
       <use xlink:href="#ArialMT-30" transform="translate(111.230469 0)"/>
      </g>
     </g>
    </g>
    <g id="text_23">
     <!-- Recognition accuracy (%) -->
     <g transform="translate(198.540282 152.626702) rotate(-90) scale(0.08 -0.08)">
      <use xlink:href="#ArialMT-52"/>
      <use xlink:href="#ArialMT-65" transform="translate(72.216797 0)"/>
      <use xlink:href="#ArialMT-63" transform="translate(127.832031 0)"/>
      <use xlink:href="#ArialMT-6f" transform="translate(177.832031 0)"/>
      <use xlink:href="#ArialMT-67" transform="translate(233.447266 0)"/>
      <use xlink:href="#ArialMT-6e" transform="translate(289.0625 0)"/>
      <use xlink:href="#ArialMT-69" transform="translate(344.677734 0)"/>
      <use xlink:href="#ArialMT-74" transform="translate(366.894531 0)"/>
      <use xlink:href="#ArialMT-69" transform="translate(394.677734 0)"/>
      <use xlink:href="#ArialMT-6f" transform="translate(416.894531 0)"/>
      <use xlink:href="#ArialMT-6e" transform="translate(472.509766 0)"/>
      <use xlink:href="#ArialMT-20" transform="translate(528.125 0)"/>
      <use xlink:href="#ArialMT-61" transform="translate(555.908203 0)"/>
      <use xlink:href="#ArialMT-63" transform="translate(611.523438 0)"/>
      <use xlink:href="#ArialMT-63" transform="translate(661.523438 0)"/>
      <use xlink:href="#ArialMT-75" transform="translate(711.523438 0)"/>
      <use xlink:href="#ArialMT-72" transform="translate(767.138672 0)"/>
      <use xlink:href="#ArialMT-61" transform="translate(800.439453 0)"/>
      <use xlink:href="#ArialMT-63" transform="translate(856.054688 0)"/>
      <use xlink:href="#ArialMT-79" transform="translate(906.054688 0)"/>
      <use xlink:href="#ArialMT-20" transform="translate(956.054688 0)"/>
      <use xlink:href="#ArialMT-28" transform="translate(983.837891 0)"/>
      <use xlink:href="#ArialMT-25" transform="translate(1017.138672 0)"/>
      <use xlink:href="#ArialMT-29" transform="translate(1106.054688 0)"/>
     </g>
    </g>
   </g>
   <g id="patch_10">
    <path d="M 222.402 196.240023 
L 222.402 17.869631 
" style="fill: none; stroke: #000000; stroke-width: 0.6; stroke-linejoin: miter; stroke-linecap: square"/>
   </g>
   <g id="patch_11">
    <path d="M 222.402 196.240023 
L 416.316364 196.240023 
" style="fill: none; stroke: #000000; stroke-width: 0.6; stroke-linejoin: miter; stroke-linecap: square"/>
   </g>
   <g id="PathCollection_1">
    <path d="M 375.185167 184.934769 
C 375.644512 184.934769 376.085106 184.752269 376.409912 184.427463 
C 376.734718 184.102657 376.917218 183.662064 376.917218 183.202718 
C 376.917218 182.743373 376.734718 182.30278 376.409912 181.977973 
C 376.085106 181.653167 375.644512 181.470668 375.185167 181.470668 
C 374.725822 181.470668 374.285228 181.653167 373.960422 181.977973 
C 373.635616 182.30278 373.453116 182.743373 373.453116 183.202718 
C 373.453116 183.662064 373.635616 184.102657 373.960422 184.427463 
C 374.285228 184.752269 374.725822 184.934769 375.185167 184.934769 
z
" clip-path="url(#pa6dac15359)" style="fill: #c14953; fill-opacity: 0.55"/>
   </g>
   <g id="PathCollection_2">
    <path d="M 406.460133 184.64212 
C 406.919478 184.64212 407.360071 184.45962 407.684877 184.134814 
C 408.009684 183.810008 408.192183 183.369414 408.192183 182.910069 
C 408.192183 182.450724 408.009684 182.01013 407.684877 181.685324 
C 407.360071 181.360518 406.919478 181.178018 406.460133 181.178018 
C 406.000787 181.178018 405.560194 181.360518 405.235388 181.685324 
C 404.910582 182.01013 404.728082 182.450724 404.728082 182.910069 
C 404.728082 183.369414 404.910582 183.810008 405.235388 184.134814 
C 405.560194 184.45962 406.000787 184.64212 406.460133 184.64212 
z
" clip-path="url(#pa6dac15359)" style="fill: #c14953; fill-opacity: 0.55"/>
   </g>
   <g id="PathCollection_3">
    <path d="M 394.587904 189.120465 
C 395.047249 189.120465 395.487842 188.937965 395.812649 188.613159 
C 396.137455 188.288353 396.319954 187.847759 396.319954 187.388414 
C 396.319954 186.929069 396.137455 186.488475 395.812649 186.163669 
C 395.487842 185.838863 395.047249 185.656363 394.587904 185.656363 
C 394.128558 185.656363 393.687965 185.838863 393.363159 186.163669 
C 393.038353 186.488475 392.855853 186.929069 392.855853 187.388414 
C 392.855853 187.847759 393.038353 188.288353 393.363159 188.613159 
C 393.687965 188.937965 394.128558 189.120465 394.587904 189.120465 
z
" clip-path="url(#pa6dac15359)" style="fill: #c14953; fill-opacity: 0.55"/>
   </g>
   <g id="PathCollection_4">
    <path d="M 387.350402 190.822353 
C 387.809747 190.822353 388.25034 190.639853 388.575146 190.315047 
C 388.899953 189.990241 389.082452 189.549647 389.082452 189.090302 
C 389.082452 188.630957 388.899953 188.190363 388.575146 187.865557 
C 388.25034 187.540751 387.809747 187.358251 387.350402 187.358251 
C 386.891056 187.358251 386.450463 187.540751 386.125657 187.865557 
C 385.800851 188.190363 385.618351 188.630957 385.618351 189.090302 
C 385.618351 189.549647 385.800851 189.990241 386.125657 190.315047 
C 386.450463 190.639853 386.891056 190.822353 387.350402 190.822353 
z
" clip-path="url(#pa6dac15359)" style="fill: #c14953; fill-opacity: 0.55"/>
   </g>
   <g id="PathCollection_5">
    <path d="M 363.323734 188.135161 
C 363.783079 188.135161 364.223672 187.952662 364.548479 187.627855 
C 364.873285 187.303049 365.055784 186.862456 365.055784 186.403111 
C 365.055784 185.943765 364.873285 185.503172 364.548479 185.178366 
C 364.223672 184.85356 363.783079 184.67106 363.323734 184.67106 
C 362.864388 184.67106 362.423795 184.85356 362.098989 185.178366 
C 361.774183 185.503172 361.591683 185.943765 361.591683 186.403111 
C 361.591683 186.862456 361.774183 187.303049 362.098989 187.627855 
C 362.423795 187.952662 362.864388 188.135161 363.323734 188.135161 
z
" clip-path="url(#pa6dac15359)" style="fill: #c14953; fill-opacity: 0.55"/>
   </g>
   <g id="PathCollection_6">
    <path d="M 363.322424 187.702959 
C 363.78177 187.702959 364.222363 187.520459 364.547169 187.195653 
C 364.871975 186.870847 365.054475 186.430253 365.054475 185.970908 
C 365.054475 185.511563 364.871975 185.070969 364.547169 184.746163 
C 364.222363 184.421357 363.78177 184.238857 363.322424 184.238857 
C 362.863079 184.238857 362.422486 184.421357 362.09768 184.746163 
C 361.772873 185.070969 361.590374 185.511563 361.590374 185.970908 
C 361.590374 186.430253 361.772873 186.870847 362.09768 187.195653 
C 362.422486 187.520459 362.863079 187.702959 363.322424 187.702959 
z
" clip-path="url(#pa6dac15359)" style="fill: #c14953; fill-opacity: 0.55"/>
   </g>
   <g id="PathCollection_7">
    <path d="M 358.007781 187.239431 
C 358.467126 187.239431 358.90772 187.056931 359.232526 186.732125 
C 359.557332 186.407319 359.739832 185.966725 359.739832 185.50738 
C 359.739832 185.048035 359.557332 184.607441 359.232526 184.282635 
C 358.90772 183.957829 358.467126 183.775329 358.007781 183.775329 
C 357.548436 183.775329 357.107842 183.957829 356.783036 184.282635 
C 356.45823 184.607441 356.27573 185.048035 356.27573 185.50738 
C 356.27573 185.966725 356.45823 186.407319 356.783036 186.732125 
C 357.107842 187.056931 357.548436 187.239431 358.007781 187.239431 
z
" clip-path="url(#pa6dac15359)" style="fill: #c14953; fill-opacity: 0.55"/>
   </g>
   <g id="PathCollection_8">
    <path d="M 401.871367 185.806262 
C 402.330713 185.806262 402.771306 185.623762 403.096112 185.298956 
C 403.420918 184.97415 403.603418 184.533557 403.603418 184.074211 
C 403.603418 183.614866 403.420918 183.174273 403.096112 182.849467 
C 402.771306 182.52466 402.330713 182.342161 401.871367 182.342161 
C 401.412022 182.342161 400.971429 182.52466 400.646623 182.849467 
C 400.321816 183.174273 400.139317 183.614866 400.139317 184.074211 
C 400.139317 184.533557 400.321816 184.97415 400.646623 185.298956 
C 400.971429 185.623762 401.412022 185.806262 401.871367 185.806262 
z
" clip-path="url(#pa6dac15359)" style="fill: #c14953; fill-opacity: 0.55"/>
   </g>
   <g id="PathCollection_9">
    <path d="M 387.483743 185.358397 
C 387.943088 185.358397 388.383682 185.175897 388.708488 184.851091 
C 389.033294 184.526285 389.215794 184.085691 389.215794 183.626346 
C 389.215794 183.167001 389.033294 182.726407 388.708488 182.401601 
C 388.383682 182.076795 387.943088 181.894295 387.483743 181.894295 
C 387.024398 181.894295 386.583804 182.076795 386.258998 182.401601 
C 385.934192 182.726407 385.751692 183.167001 385.751692 183.626346 
C 385.751692 184.085691 385.934192 184.526285 386.258998 184.851091 
C 386.583804 185.175897 387.024398 185.358397 387.483743 185.358397 
z
" clip-path="url(#pa6dac15359)" style="fill: #c14953; fill-opacity: 0.55"/>
   </g>
   <g id="PathCollection_10">
    <path d="M 393.289442 186.970712 
C 393.748788 186.970712 394.189381 186.788212 394.514187 186.463406 
C 394.838993 186.1386 395.021493 185.698006 395.021493 185.238661 
C 395.021493 184.779316 394.838993 184.338722 394.514187 184.013916 
C 394.189381 183.68911 393.748788 183.50661 393.289442 183.50661 
C 392.830097 183.50661 392.389504 183.68911 392.064698 184.013916 
C 391.739891 184.338722 391.557392 184.779316 391.557392 185.238661 
C 391.557392 185.698006 391.739891 186.1386 392.064698 186.463406 
C 392.389504 186.788212 392.830097 186.970712 393.289442 186.970712 
z
" clip-path="url(#pa6dac15359)" style="fill: #c14953; fill-opacity: 0.55"/>
   </g>
   <g id="PathCollection_11">
    <path d="M 355.972314 183.656509 
C 356.431659 183.656509 356.872253 183.474009 357.197059 183.149203 
C 357.521865 182.824397 357.704365 182.383804 357.704365 181.924458 
C 357.704365 181.465113 357.521865 181.02452 357.197059 180.699713 
C 356.872253 180.374907 356.431659 180.192407 355.972314 180.192407 
C 355.512969 180.192407 355.072375 180.374907 354.747569 180.699713 
C 354.422763 181.02452 354.240263 181.465113 354.240263 181.924458 
C 354.240263 182.383804 354.422763 182.824397 354.747569 183.149203 
C 355.072375 183.474009 355.512969 183.656509 355.972314 183.656509 
z
" clip-path="url(#pa6dac15359)" style="fill: #c14953; fill-opacity: 0.55"/>
   </g>
   <g id="PathCollection_12">
    <path d="M 407.502074 185.627116 
C 407.96142 185.627116 408.402013 185.444616 408.726819 185.11981 
C 409.051625 184.795004 409.234125 184.354411 409.234125 183.895065 
C 409.234125 183.43572 409.051625 182.995127 408.726819 182.67032 
C 408.402013 182.345514 407.96142 182.163015 407.502074 182.163015 
C 407.042729 182.163015 406.602136 182.345514 406.27733 182.67032 
C 405.952523 182.995127 405.770024 183.43572 405.770024 183.895065 
C 405.770024 184.354411 405.952523 184.795004 406.27733 185.11981 
C 406.602136 185.444616 407.042729 185.627116 407.502074 185.627116 
z
" clip-path="url(#pa6dac15359)" style="fill: #c14953; fill-opacity: 0.55"/>
   </g>
   <g id="PathCollection_13">
    <path d="M 400.040299 187.866442 
C 400.499644 187.866442 400.940238 187.683942 401.265044 187.359136 
C 401.58985 187.03433 401.77235 186.593737 401.77235 186.134391 
C 401.77235 185.675046 401.58985 185.234453 401.265044 184.909647 
C 400.940238 184.58484 400.499644 184.402341 400.040299 184.402341 
C 399.580954 184.402341 399.14036 184.58484 398.815554 184.909647 
C 398.490748 185.234453 398.308248 185.675046 398.308248 186.134391 
C 398.308248 186.593737 398.490748 187.03433 398.815554 187.359136 
C 399.14036 187.683942 399.580954 187.866442 400.040299 187.866442 
z
" clip-path="url(#pa6dac15359)" style="fill: #c14953; fill-opacity: 0.55"/>
   </g>
   <g id="PathCollection_14">
    <path d="M 366.380831 186.970712 
C 366.840177 186.970712 367.28077 186.788212 367.605576 186.463406 
C 367.930382 186.1386 368.112882 185.698006 368.112882 185.238661 
C 368.112882 184.779316 367.930382 184.338722 367.605576 184.013916 
C 367.28077 183.68911 366.840177 183.50661 366.380831 183.50661 
C 365.921486 183.50661 365.480893 183.68911 365.156086 184.013916 
C 364.83128 184.338722 364.648781 184.779316 364.648781 185.238661 
C 364.648781 185.698006 364.83128 186.1386 365.156086 186.463406 
C 365.480893 186.788212 365.921486 186.970712 366.380831 186.970712 
z
" clip-path="url(#pa6dac15359)" style="fill: #c14953; fill-opacity: 0.55"/>
   </g>
   <g id="PathCollection_15">
    <path d="M 364.724511 186.172539 
C 365.183857 186.172539 365.62445 185.990039 365.949256 185.665233 
C 366.274062 185.340427 366.456562 184.899834 366.456562 184.440488 
C 366.456562 183.981143 366.274062 183.54055 365.949256 183.215744 
C 365.62445 182.890937 365.183857 182.708438 364.724511 182.708438 
C 364.265166 182.708438 363.824573 182.890937 363.499767 183.215744 
C 363.17496 183.54055 362.992461 183.981143 362.992461 184.440488 
C 362.992461 184.899834 363.17496 185.340427 363.499767 185.665233 
C 363.824573 185.990039 364.265166 186.172539 364.724511 186.172539 
z
" clip-path="url(#pa6dac15359)" style="fill: #c14953; fill-opacity: 0.55"/>
   </g>
   <g id="PathCollection_16">
    <path d="M 364.81025 189.478757 
C 365.269595 189.478757 365.710188 189.296257 366.034995 188.971451 
C 366.359801 188.646645 366.5423 188.206052 366.5423 187.746706 
C 366.5423 187.287361 366.359801 186.846768 366.034995 186.521961 
C 365.710188 186.197155 365.269595 186.014656 364.81025 186.014656 
C 364.350904 186.014656 363.910311 186.197155 363.585505 186.521961 
C 363.260699 186.846768 363.078199 187.287361 363.078199 187.746706 
C 363.078199 188.206052 363.260699 188.646645 363.585505 188.971451 
C 363.910311 189.296257 364.350904 189.478757 364.81025 189.478757 
z
" clip-path="url(#pa6dac15359)" style="fill: #c14953; fill-opacity: 0.55"/>
   </g>
   <g id="PathCollection_17">
    <path d="M 371.36937 186.254127 
C 371.828715 186.254127 372.269309 186.071628 372.594115 185.746822 
C 372.918921 185.422015 373.101421 184.981422 373.101421 184.522077 
C 373.101421 184.062731 372.918921 183.622138 372.594115 183.297332 
C 372.269309 182.972526 371.828715 182.790026 371.36937 182.790026 
C 370.910025 182.790026 370.469431 182.972526 370.144625 183.297332 
C 369.819819 183.622138 369.637319 184.062731 369.637319 184.522077 
C 369.637319 184.981422 369.819819 185.422015 370.144625 185.746822 
C 370.469431 186.071628 370.910025 186.254127 371.36937 186.254127 
z
" clip-path="url(#pa6dac15359)" style="fill: #c14953; fill-opacity: 0.55"/>
   </g>
   <g id="PathCollection_18">
    <path d="M 383.338969 184.425783 
C 383.798314 184.425783 384.238907 184.243284 384.563713 183.918478 
C 384.88852 183.593671 385.071019 183.153078 385.071019 182.693733 
C 385.071019 182.234387 384.88852 181.793794 384.563713 181.468988 
C 384.238907 181.144182 383.798314 180.961682 383.338969 180.961682 
C 382.879623 180.961682 382.43903 181.144182 382.114224 181.468988 
C 381.789418 181.793794 381.606918 182.234387 381.606918 182.693733 
C 381.606918 183.153078 381.789418 183.593671 382.114224 183.918478 
C 382.43903 184.243284 382.879623 184.425783 383.338969 184.425783 
z
" clip-path="url(#pa6dac15359)" style="fill: #c14953; fill-opacity: 0.55"/>
   </g>
   <g id="PathCollection_19">
    <path d="M 378.301128 185.070637 
C 378.760473 185.070637 379.201067 184.888137 379.525873 184.563331 
C 379.850679 184.238525 380.033179 183.797932 380.033179 183.338586 
C 380.033179 182.879241 379.850679 182.438648 379.525873 182.113841 
C 379.201067 181.789035 378.760473 181.606536 378.301128 181.606536 
C 377.841783 181.606536 377.401189 181.789035 377.076383 182.113841 
C 376.751577 182.438648 376.569077 182.879241 376.569077 183.338586 
C 376.569077 183.797932 376.751577 184.238525 377.076383 184.563331 
C 377.401189 184.888137 377.841783 185.070637 378.301128 185.070637 
z
" clip-path="url(#pa6dac15359)" style="fill: #c14953; fill-opacity: 0.55"/>
   </g>
   <g id="PathCollection_20">
    <path d="M 370.663014 189.030892 
C 371.122359 189.030892 371.562952 188.848392 371.887759 188.523586 
C 372.212565 188.19878 372.395065 187.758186 372.395065 187.298841 
C 372.395065 186.839496 372.212565 186.398902 371.887759 186.074096 
C 371.562952 185.74929 371.122359 185.56679 370.663014 185.56679 
C 370.203668 185.56679 369.763075 185.74929 369.438269 186.074096 
C 369.113463 186.398902 368.930963 186.839496 368.930963 187.298841 
C 368.930963 187.758186 369.113463 188.19878 369.438269 188.523586 
C 369.763075 188.848392 370.203668 189.030892 370.663014 189.030892 
z
" clip-path="url(#pa6dac15359)" style="fill: #c14953; fill-opacity: 0.55"/>
   </g>
   <g id="text_24">
    <!-- Chance (3.8%) -->
    <g style="fill: #6c757d" transform="translate(464.923569 183.277613) scale(0.055 -0.055)">
     <use xlink:href="#ArialMT-43"/>
     <use xlink:href="#ArialMT-68" transform="translate(72.216797 0)"/>
     <use xlink:href="#ArialMT-61" transform="translate(127.832031 0)"/>
     <use xlink:href="#ArialMT-6e" transform="translate(183.447266 0)"/>
     <use xlink:href="#ArialMT-63" transform="translate(239.0625 0)"/>
     <use xlink:href="#ArialMT-65" transform="translate(289.0625 0)"/>
     <use xlink:href="#ArialMT-20" transform="translate(344.677734 0)"/>
     <use xlink:href="#ArialMT-28" transform="translate(372.460938 0)"/>
     <use xlink:href="#ArialMT-33" transform="translate(405.761719 0)"/>
     <use xlink:href="#ArialMT-2e" transform="translate(461.376953 0)"/>
     <use xlink:href="#ArialMT-38" transform="translate(489.160156 0)"/>
     <use xlink:href="#ArialMT-25" transform="translate(544.775391 0)"/>
     <use xlink:href="#ArialMT-29" transform="translate(633.691406 0)"/>
    </g>
   </g>
   <g id="text_25">
    <!-- (b) -->
    <g transform="translate(186.365089 10.879687) scale(0.1 -0.1)">
     <defs>
      <path id="Arial-BoldMT-62" d="M 422 0 
L 422 4581 
L 1300 4581 
L 1300 2931 
Q 1706 3394 2263 3394 
Q 2869 3394 3266 2955 
Q 3663 2516 3663 1694 
Q 3663 844 3258 384 
Q 2853 -75 2275 -75 
Q 1991 -75 1714 67 
Q 1438 209 1238 488 
L 1238 0 
L 422 0 
z
M 1294 1731 
Q 1294 1216 1456 969 
Q 1684 619 2063 619 
Q 2353 619 2558 867 
Q 2763 1116 2763 1650 
Q 2763 2219 2556 2470 
Q 2350 2722 2028 2722 
Q 1713 2722 1503 2476 
Q 1294 2231 1294 1731 
z
" transform="scale(0.015625)"/>
     </defs>
     <use xlink:href="#Arial-BoldMT-28"/>
     <use xlink:href="#Arial-BoldMT-62" transform="translate(33.300781 0)"/>
     <use xlink:href="#Arial-BoldMT-29" transform="translate(94.384766 0)"/>
    </g>
   </g>
   <g id="PathCollection_21">
    <defs>
     <path id="m265cc77315" d="M 0 3.162278 
C 0.838646 3.162278 1.643056 2.82908 2.236068 2.236068 
C 2.82908 1.643056 3.162278 0.838646 3.162278 0 
C 3.162278 -0.838646 2.82908 -1.643056 2.236068 -2.236068 
C 1.643056 -2.82908 0.838646 -3.162278 0 -3.162278 
C -0.838646 -3.162278 -1.643056 -2.82908 -2.236068 -2.236068 
C -2.82908 -1.643056 -3.162278 -0.838646 -3.162278 0 
C -3.162278 0.838646 -2.82908 1.643056 -2.236068 2.236068 
C -1.643056 2.82908 -0.838646 3.162278 0 3.162278 
z
" style="stroke: #ffffff; stroke-width: 0.4"/>
    </defs>
    <g clip-path="url(#pa6dac15359)">
     <use xlink:href="#m265cc77315" x="231.21629" y="34.845515" style="fill: #2c5f8a; stroke: #ffffff; stroke-width: 0.4"/>
    </g>
   </g>
   <g id="PathCollection_22">
    <defs>
     <path id="md1a45156af" d="M 0 3.162278 
C 0.838646 3.162278 1.643056 2.82908 2.236068 2.236068 
C 2.82908 1.643056 3.162278 0.838646 3.162278 0 
C 3.162278 -0.838646 2.82908 -1.643056 2.236068 -2.236068 
C 1.643056 -2.82908 0.838646 -3.162278 0 -3.162278 
C -0.838646 -3.162278 -1.643056 -2.82908 -2.236068 -2.236068 
C -2.82908 -1.643056 -3.162278 -0.838646 -3.162278 0 
C -3.162278 0.838646 -2.82908 1.643056 -2.236068 2.236068 
C -1.643056 2.82908 -0.838646 3.162278 0 3.162278 
z
" style="stroke: #ffffff; stroke-width: 0.4"/>
    </defs>
    <g clip-path="url(#pa6dac15359)">
     <use xlink:href="#md1a45156af" x="231.21629" y="38.279149" style="fill: #2a9d8f; stroke: #ffffff; stroke-width: 0.4"/>
    </g>
   </g>
   <g id="PathCollection_23">
    <defs>
     <path id="m1efcfc8309" d="M 0 3.162278 
C 0.838646 3.162278 1.643056 2.82908 2.236068 2.236068 
C 2.82908 1.643056 3.162278 0.838646 3.162278 0 
C 3.162278 -0.838646 2.82908 -1.643056 2.236068 -2.236068 
C 1.643056 -2.82908 0.838646 -3.162278 0 -3.162278 
C -0.838646 -3.162278 -1.643056 -2.82908 -2.236068 -2.236068 
C -2.82908 -1.643056 -3.162278 -0.838646 -3.162278 0 
C -3.162278 0.838646 -2.82908 1.643056 -2.236068 2.236068 
C -1.643056 2.82908 -0.838646 3.162278 0 3.162278 
z
" style="stroke: #ffffff; stroke-width: 0.4"/>
    </defs>
    <g clip-path="url(#pa6dac15359)">
     <use xlink:href="#m1efcfc8309" x="231.21629" y="42.056145" style="fill: #e07a3a; stroke: #ffffff; stroke-width: 0.4"/>
    </g>
   </g>
   <g id="PathCollection_24">
    <defs>
     <path id="mc367dfd177" d="M 0 3.162278 
C 0.838646 3.162278 1.643056 2.82908 2.236068 2.236068 
C 2.82908 1.643056 3.162278 0.838646 3.162278 0 
C 3.162278 -0.838646 2.82908 -1.643056 2.236068 -2.236068 
C 1.643056 -2.82908 0.838646 -3.162278 0 -3.162278 
C -0.838646 -3.162278 -1.643056 -2.82908 -2.236068 -2.236068 
C -2.82908 -1.643056 -3.162278 -0.838646 -3.162278 0 
C -3.162278 0.838646 -2.82908 1.643056 -2.236068 2.236068 
C -1.643056 2.82908 -0.838646 3.162278 0 3.162278 
z
" style="stroke: #ffffff; stroke-width: 0.4"/>
    </defs>
    <g clip-path="url(#pa6dac15359)">
     <use xlink:href="#mc367dfd177" x="231.21629" y="32.785335" style="fill: #c14953; stroke: #ffffff; stroke-width: 0.4"/>
    </g>
   </g>
   <g id="PathCollection_25">
    <defs>
     <path id="m93a7f2cc2b" d="M 0 3.162278 
C 0.838646 3.162278 1.643056 2.82908 2.236068 2.236068 
C 2.82908 1.643056 3.162278 0.838646 3.162278 0 
C 3.162278 -0.838646 2.82908 -1.643056 2.236068 -2.236068 
C 1.643056 -2.82908 0.838646 -3.162278 0 -3.162278 
C -0.838646 -3.162278 -1.643056 -2.82908 -2.236068 -2.236068 
C -2.82908 -1.643056 -3.162278 -0.838646 -3.162278 0 
C -3.162278 0.838646 -2.82908 1.643056 -2.236068 2.236068 
C -1.643056 2.82908 -0.838646 3.162278 0 3.162278 
z
" style="stroke: #ffffff; stroke-width: 0.4"/>
    </defs>
    <g clip-path="url(#pa6dac15359)">
     <use xlink:href="#m93a7f2cc2b" x="231.21629" y="41.026055" style="fill: #7b6d9b; stroke: #ffffff; stroke-width: 0.4"/>
    </g>
   </g>
   <g id="PathCollection_26">
    <defs>
     <path id="m11f1028922" d="M 7.071068 0 
L -7.071068 -0 
" style="stroke: #000000; stroke-width: 1.5"/>
    </defs>
    <g clip-path="url(#pa6dac15359)">
     <use xlink:href="#m11f1028922" x="231.21629" y="37.79844" style="stroke: #000000; stroke-width: 1.5"/>
    </g>
   </g>
   <g id="PathCollection_27">
    <g clip-path="url(#pa6dac15359)">
     <use xlink:href="#m11f1028922" x="381.99518" y="185.032256" style="stroke: #000000; stroke-width: 1.5"/>
    </g>
   </g>
   <g id="legend_1">
    <g id="text_26">
     <!-- Fibers -->
     <g transform="translate(394.697614 89.156116) scale(0.06 -0.06)">
      <defs>
       <path id="ArialMT-46" d="M 525 0 
L 525 4581 
L 3616 4581 
L 3616 4041 
L 1131 4041 
L 1131 2622 
L 3281 2622 
L 3281 2081 
L 1131 2081 
L 1131 0 
L 525 0 
z
" transform="scale(0.015625)"/>
      </defs>
      <use xlink:href="#ArialMT-46"/>
      <use xlink:href="#ArialMT-69" transform="translate(61.083984 0)"/>
      <use xlink:href="#ArialMT-62" transform="translate(83.300781 0)"/>
      <use xlink:href="#ArialMT-65" transform="translate(138.916016 0)"/>
      <use xlink:href="#ArialMT-72" transform="translate(194.53125 0)"/>
      <use xlink:href="#ArialMT-73" transform="translate(227.832031 0)"/>
     </g>
    </g>
    <g id="patch_12">
     <path d="M 394.873082 97.035413 
L 400.373082 97.035413 
L 400.373082 93.185413 
L 394.873082 93.185413 
z
" style="fill: #2c5f8a; stroke: #2c5f8a; stroke-linejoin: miter"/>
    </g>
    <g id="text_27">
     <!-- F1 -->
     <g transform="translate(404.773082 97.035413) scale(0.055 -0.055)">
      <use xlink:href="#ArialMT-46"/>
      <use xlink:href="#ArialMT-31" transform="translate(61.083984 0)"/>
     </g>
    </g>
    <g id="patch_13">
     <path d="M 394.873082 104.815335 
L 400.373082 104.815335 
L 400.373082 100.965335 
L 394.873082 100.965335 
z
" style="fill: #2a9d8f; stroke: #2a9d8f; stroke-linejoin: miter"/>
    </g>
    <g id="text_28">
     <!-- F2 -->
     <g transform="translate(404.773082 104.815335) scale(0.055 -0.055)">
      <use xlink:href="#ArialMT-46"/>
      <use xlink:href="#ArialMT-32" transform="translate(61.083984 0)"/>
     </g>
    </g>
    <g id="patch_14">
     <path d="M 394.873082 112.595257 
L 400.373082 112.595257 
L 400.373082 108.745257 
L 394.873082 108.745257 
z
" style="fill: #e07a3a; stroke: #e07a3a; stroke-linejoin: miter"/>
    </g>
    <g id="text_29">
     <!-- F3 -->
     <g transform="translate(404.773082 112.595257) scale(0.055 -0.055)">
      <use xlink:href="#ArialMT-46"/>
      <use xlink:href="#ArialMT-33" transform="translate(61.083984 0)"/>
     </g>
    </g>
    <g id="patch_15">
     <path d="M 394.873082 120.375179 
L 400.373082 120.375179 
L 400.373082 116.525179 
L 394.873082 116.525179 
z
" style="fill: #c14953; stroke: #c14953; stroke-linejoin: miter"/>
    </g>
    <g id="text_30">
     <!-- F4 -->
     <g transform="translate(404.773082 120.375179) scale(0.055 -0.055)">
      <use xlink:href="#ArialMT-46"/>
      <use xlink:href="#ArialMT-34" transform="translate(61.083984 0)"/>
     </g>
    </g>
    <g id="patch_16">
     <path d="M 394.873082 128.1551 
L 400.373082 128.1551 
L 400.373082 124.3051 
L 394.873082 124.3051 
z
" style="fill: #7b6d9b; stroke: #7b6d9b; stroke-linejoin: miter"/>
    </g>
    <g id="text_31">
     <!-- F5 -->
     <g transform="translate(404.773082 128.1551) scale(0.055 -0.055)">
      <use xlink:href="#ArialMT-46"/>
      <use xlink:href="#ArialMT-35" transform="translate(61.083984 0)"/>
     </g>
    </g>
   </g>
  </g>
 </g>
 <defs>
  <clipPath id="pf411b86515">
   <rect x="33.285469" y="17.869631" width="121.196477" height="178.370391"/>
  </clipPath>
  <clipPath id="pa6dac15359">
   <rect x="222.402" y="17.869631" width="193.914363" height="178.370391"/>
  </clipPath>
 </defs>
</svg>
